# xmcd CD database file
#
# Track frame offsets:
#	182
#	14292
#	31957
#	47545
#	62522
#	76152
#	91040
#	107055
#	125007
#	139690
#	157155
#	168740
#
# Disc length: 2432 seconds
#
# Revision: 10
# Processed by: cddbd v1.5.2PL0 Copyright (c) Steve Scherf et al.
# Submitted via: CDex 1.81
#
DISCID=93097e0c
DTITLE=Terri Clark - Terri Clark
DYEAR=1995
DGENRE=Country
TTITLE0=Better Things To Do
TTITLE1=If I Were You
TTITLE2=Catch 22
TTITLE3=Is Fort Worth Worth It
TTITLE4=When Boy Meets Girl
TTITLE5=Tyin' A Heart To A Tumbleweed
TTITLE6=When We Had It Bad
TTITLE7=Suddenly Single
TTITLE8=Flowers After The Fact
TTITLE9=The Inside Story
TTITLE10=Was There A Girl On Your Boys' Night Out
TTITLE11=Something You Should've Said
EXTD=YEAR: 1995
EXTT0=
EXTT1=
EXTT2=
EXTT3=
EXTT4=
EXTT5=
EXTT6=
EXTT7=
EXTT8=
EXTT9=
EXTT10=
EXTT11=
PLAYORDER=
